<mxfile host="app.diagrams.net" modified="2023-06-07T09:44:29.927Z" agent="Mozilla/5.0 (Windows NT 10.0; Win64; x64) AppleWebKit/537.36 (KHTML, like Gecko) Chrome/114.0.0.0 Safari/537.36" etag="3zToaFDFNtCxzL5W0h7B" version="21.3.7" type="device">
  <diagram name="Page-1" id="id4hnuhuo75r5iLh6sp2">
    <mxGraphModel dx="1290" dy="1677" grid="1" gridSize="10" guides="1" tooltips="1" connect="1" arrows="1" fold="1" page="1" pageScale="1" pageWidth="850" pageHeight="1100" math="0" shadow="0">
      <root>
        <mxCell id="0" />
        <mxCell id="1" parent="0" />
        <mxCell id="u3d1l5M-4l7rgUjGcVjR-4" style="edgeStyle=orthogonalEdgeStyle;rounded=0;orthogonalLoop=1;jettySize=auto;html=1;exitX=0.75;exitY=0;exitDx=0;exitDy=0;entryX=0;entryY=0;entryDx=0;entryDy=0;" edge="1" parent="1" source="u3d1l5M-4l7rgUjGcVjR-2" target="u3d1l5M-4l7rgUjGcVjR-3">
          <mxGeometry relative="1" as="geometry" />
        </mxCell>
        <mxCell id="u3d1l5M-4l7rgUjGcVjR-19" style="edgeStyle=orthogonalEdgeStyle;rounded=0;orthogonalLoop=1;jettySize=auto;html=1;exitX=0.75;exitY=1;exitDx=0;exitDy=0;" edge="1" parent="1" source="u3d1l5M-4l7rgUjGcVjR-2" target="u3d1l5M-4l7rgUjGcVjR-17">
          <mxGeometry relative="1" as="geometry" />
        </mxCell>
        <mxCell id="u3d1l5M-4l7rgUjGcVjR-28" style="edgeStyle=orthogonalEdgeStyle;rounded=0;orthogonalLoop=1;jettySize=auto;html=1;exitX=0;exitY=0.75;exitDx=0;exitDy=0;entryX=0;entryY=0;entryDx=0;entryDy=0;" edge="1" parent="1" source="u3d1l5M-4l7rgUjGcVjR-2" target="u3d1l5M-4l7rgUjGcVjR-27">
          <mxGeometry relative="1" as="geometry">
            <Array as="points">
              <mxPoint x="30" y="195" />
              <mxPoint x="30" y="340" />
              <mxPoint x="62" y="340" />
            </Array>
          </mxGeometry>
        </mxCell>
        <mxCell id="u3d1l5M-4l7rgUjGcVjR-41" style="edgeStyle=orthogonalEdgeStyle;rounded=0;orthogonalLoop=1;jettySize=auto;html=1;exitX=0.41;exitY=0.983;exitDx=0;exitDy=0;entryX=0.5;entryY=0;entryDx=0;entryDy=0;exitPerimeter=0;" edge="1" parent="1" source="u3d1l5M-4l7rgUjGcVjR-2" target="u3d1l5M-4l7rgUjGcVjR-32">
          <mxGeometry relative="1" as="geometry">
            <Array as="points">
              <mxPoint x="169" y="215" />
              <mxPoint x="170" y="370" />
              <mxPoint x="498" y="370" />
            </Array>
          </mxGeometry>
        </mxCell>
        <mxCell id="u3d1l5M-4l7rgUjGcVjR-62" style="edgeStyle=orthogonalEdgeStyle;rounded=0;orthogonalLoop=1;jettySize=auto;html=1;exitX=0.5;exitY=0;exitDx=0;exitDy=0;entryX=0.5;entryY=1;entryDx=0;entryDy=0;" edge="1" parent="1" source="u3d1l5M-4l7rgUjGcVjR-2" target="u3d1l5M-4l7rgUjGcVjR-61">
          <mxGeometry relative="1" as="geometry" />
        </mxCell>
        <mxCell id="u3d1l5M-4l7rgUjGcVjR-2" value="Patient" style="rounded=0;whiteSpace=wrap;html=1;" vertex="1" parent="1">
          <mxGeometry x="120" y="150" width="120" height="60" as="geometry" />
        </mxCell>
        <mxCell id="u3d1l5M-4l7rgUjGcVjR-10" style="edgeStyle=orthogonalEdgeStyle;rounded=0;orthogonalLoop=1;jettySize=auto;html=1;exitX=0;exitY=0.5;exitDx=0;exitDy=0;entryX=1;entryY=0.5;entryDx=0;entryDy=0;" edge="1" parent="1" source="u3d1l5M-4l7rgUjGcVjR-3" target="u3d1l5M-4l7rgUjGcVjR-2">
          <mxGeometry relative="1" as="geometry" />
        </mxCell>
        <mxCell id="u3d1l5M-4l7rgUjGcVjR-13" style="edgeStyle=orthogonalEdgeStyle;rounded=0;orthogonalLoop=1;jettySize=auto;html=1;exitX=1;exitY=0;exitDx=0;exitDy=0;entryX=0;entryY=0.25;entryDx=0;entryDy=0;" edge="1" parent="1" source="u3d1l5M-4l7rgUjGcVjR-3" target="u3d1l5M-4l7rgUjGcVjR-12">
          <mxGeometry relative="1" as="geometry">
            <Array as="points">
              <mxPoint x="555" y="116" />
              <mxPoint x="555" y="120" />
              <mxPoint x="680" y="120" />
              <mxPoint x="680" y="145" />
            </Array>
          </mxGeometry>
        </mxCell>
        <mxCell id="u3d1l5M-4l7rgUjGcVjR-3" value="1&lt;br&gt;&lt;br&gt;login&amp;nbsp;" style="ellipse;whiteSpace=wrap;html=1;aspect=fixed;" vertex="1" parent="1">
          <mxGeometry x="425" y="100" width="110" height="110" as="geometry" />
        </mxCell>
        <mxCell id="u3d1l5M-4l7rgUjGcVjR-5" value="username, password" style="text;html=1;align=center;verticalAlign=middle;resizable=0;points=[];autosize=1;strokeColor=none;fillColor=none;" vertex="1" parent="1">
          <mxGeometry x="220" y="90" width="130" height="30" as="geometry" />
        </mxCell>
        <mxCell id="u3d1l5M-4l7rgUjGcVjR-11" value="notification/message/alert/error" style="text;html=1;align=center;verticalAlign=middle;resizable=0;points=[];autosize=1;strokeColor=none;fillColor=none;" vertex="1" parent="1">
          <mxGeometry x="240" y="180" width="190" height="30" as="geometry" />
        </mxCell>
        <mxCell id="u3d1l5M-4l7rgUjGcVjR-15" style="edgeStyle=orthogonalEdgeStyle;rounded=0;orthogonalLoop=1;jettySize=auto;html=1;exitX=0;exitY=0.75;exitDx=0;exitDy=0;entryX=1;entryY=1;entryDx=0;entryDy=0;" edge="1" parent="1" source="u3d1l5M-4l7rgUjGcVjR-12" target="u3d1l5M-4l7rgUjGcVjR-3">
          <mxGeometry relative="1" as="geometry">
            <mxPoint x="560" y="175" as="targetPoint" />
            <Array as="points">
              <mxPoint x="700" y="190" />
              <mxPoint x="618" y="190" />
              <mxPoint x="618" y="194" />
            </Array>
          </mxGeometry>
        </mxCell>
        <mxCell id="u3d1l5M-4l7rgUjGcVjR-12" value="User&lt;br&gt;Database" style="shape=partialRectangle;whiteSpace=wrap;html=1;left=0;right=0;fillColor=none;" vertex="1" parent="1">
          <mxGeometry x="710" y="130" width="120" height="60" as="geometry" />
        </mxCell>
        <mxCell id="u3d1l5M-4l7rgUjGcVjR-14" value="username, password" style="text;html=1;align=center;verticalAlign=middle;resizable=0;points=[];autosize=1;strokeColor=none;fillColor=none;" vertex="1" parent="1">
          <mxGeometry x="555" y="90" width="130" height="30" as="geometry" />
        </mxCell>
        <mxCell id="u3d1l5M-4l7rgUjGcVjR-16" value="user_record" style="text;html=1;align=center;verticalAlign=middle;resizable=0;points=[];autosize=1;strokeColor=none;fillColor=none;" vertex="1" parent="1">
          <mxGeometry x="575" y="200" width="90" height="30" as="geometry" />
        </mxCell>
        <mxCell id="u3d1l5M-4l7rgUjGcVjR-21" style="edgeStyle=orthogonalEdgeStyle;rounded=0;orthogonalLoop=1;jettySize=auto;html=1;entryX=0.5;entryY=1;entryDx=0;entryDy=0;" edge="1" parent="1" source="u3d1l5M-4l7rgUjGcVjR-17" target="u3d1l5M-4l7rgUjGcVjR-2">
          <mxGeometry relative="1" as="geometry">
            <Array as="points">
              <mxPoint x="180" y="300" />
            </Array>
          </mxGeometry>
        </mxCell>
        <mxCell id="u3d1l5M-4l7rgUjGcVjR-23" style="edgeStyle=orthogonalEdgeStyle;rounded=0;orthogonalLoop=1;jettySize=auto;html=1;exitX=1;exitY=0;exitDx=0;exitDy=0;entryX=0.5;entryY=1;entryDx=0;entryDy=0;" edge="1" parent="1" source="u3d1l5M-4l7rgUjGcVjR-17" target="u3d1l5M-4l7rgUjGcVjR-12">
          <mxGeometry relative="1" as="geometry" />
        </mxCell>
        <mxCell id="u3d1l5M-4l7rgUjGcVjR-17" value="2&lt;br&gt;&lt;br&gt;registration" style="ellipse;whiteSpace=wrap;html=1;aspect=fixed;" vertex="1" parent="1">
          <mxGeometry x="447.5" y="278" width="82" height="82" as="geometry" />
        </mxCell>
        <mxCell id="u3d1l5M-4l7rgUjGcVjR-20" value="username, password, email ..." style="text;html=1;align=center;verticalAlign=middle;resizable=0;points=[];autosize=1;strokeColor=none;fillColor=none;" vertex="1" parent="1">
          <mxGeometry x="230" y="218" width="180" height="30" as="geometry" />
        </mxCell>
        <mxCell id="u3d1l5M-4l7rgUjGcVjR-22" value="registration-notification" style="text;html=1;align=center;verticalAlign=middle;resizable=0;points=[];autosize=1;strokeColor=none;fillColor=none;" vertex="1" parent="1">
          <mxGeometry x="190" y="270" width="140" height="30" as="geometry" />
        </mxCell>
        <mxCell id="u3d1l5M-4l7rgUjGcVjR-24" value="user_details" style="text;html=1;align=center;verticalAlign=middle;resizable=0;points=[];autosize=1;strokeColor=none;fillColor=none;" vertex="1" parent="1">
          <mxGeometry x="590" y="268" width="90" height="30" as="geometry" />
        </mxCell>
        <mxCell id="u3d1l5M-4l7rgUjGcVjR-30" style="edgeStyle=orthogonalEdgeStyle;rounded=0;orthogonalLoop=1;jettySize=auto;html=1;exitX=1;exitY=0.5;exitDx=0;exitDy=0;entryX=0.19;entryY=0.997;entryDx=0;entryDy=0;entryPerimeter=0;" edge="1" parent="1" source="u3d1l5M-4l7rgUjGcVjR-27" target="u3d1l5M-4l7rgUjGcVjR-2">
          <mxGeometry relative="1" as="geometry">
            <Array as="points">
              <mxPoint x="140" y="380" />
              <mxPoint x="140" y="210" />
            </Array>
          </mxGeometry>
        </mxCell>
        <mxCell id="u3d1l5M-4l7rgUjGcVjR-39" style="edgeStyle=orthogonalEdgeStyle;rounded=0;orthogonalLoop=1;jettySize=auto;html=1;exitX=0.5;exitY=1;exitDx=0;exitDy=0;entryX=0.5;entryY=0;entryDx=0;entryDy=0;" edge="1" parent="1" source="u3d1l5M-4l7rgUjGcVjR-27" target="u3d1l5M-4l7rgUjGcVjR-38">
          <mxGeometry relative="1" as="geometry" />
        </mxCell>
        <mxCell id="u3d1l5M-4l7rgUjGcVjR-54" style="edgeStyle=orthogonalEdgeStyle;rounded=0;orthogonalLoop=1;jettySize=auto;html=1;exitX=1;exitY=0.5;exitDx=0;exitDy=0;entryX=0.5;entryY=0;entryDx=0;entryDy=0;" edge="1" parent="1" source="u3d1l5M-4l7rgUjGcVjR-27" target="u3d1l5M-4l7rgUjGcVjR-37">
          <mxGeometry relative="1" as="geometry">
            <Array as="points">
              <mxPoint x="130" y="420" />
              <mxPoint x="275" y="420" />
            </Array>
          </mxGeometry>
        </mxCell>
        <mxCell id="u3d1l5M-4l7rgUjGcVjR-27" value="3.&lt;br&gt;Appointment&lt;br&gt;Handler" style="ellipse;whiteSpace=wrap;html=1;aspect=fixed;" vertex="1" parent="1">
          <mxGeometry x="50" y="340" width="80" height="80" as="geometry" />
        </mxCell>
        <mxCell id="u3d1l5M-4l7rgUjGcVjR-29" value="date, visiting_location, reason.." style="text;html=1;align=center;verticalAlign=middle;resizable=0;points=[];autosize=1;strokeColor=none;fillColor=none;rotation=90;" vertex="1" parent="1">
          <mxGeometry x="-80" y="270" width="190" height="30" as="geometry" />
        </mxCell>
        <mxCell id="u3d1l5M-4l7rgUjGcVjR-31" value="notification/alert/error" style="text;html=1;align=center;verticalAlign=middle;resizable=0;points=[];autosize=1;strokeColor=none;fillColor=none;rotation=90;" vertex="1" parent="1">
          <mxGeometry x="60" y="278" width="140" height="30" as="geometry" />
        </mxCell>
        <mxCell id="u3d1l5M-4l7rgUjGcVjR-43" style="edgeStyle=orthogonalEdgeStyle;rounded=0;orthogonalLoop=1;jettySize=auto;html=1;exitX=0;exitY=0;exitDx=0;exitDy=0;entryX=0.25;entryY=1;entryDx=0;entryDy=0;" edge="1" parent="1" source="u3d1l5M-4l7rgUjGcVjR-32" target="u3d1l5M-4l7rgUjGcVjR-2">
          <mxGeometry relative="1" as="geometry">
            <mxPoint x="440" y="480" as="targetPoint" />
            <Array as="points">
              <mxPoint x="462" y="390" />
              <mxPoint x="150" y="390" />
            </Array>
          </mxGeometry>
        </mxCell>
        <mxCell id="u3d1l5M-4l7rgUjGcVjR-47" style="edgeStyle=orthogonalEdgeStyle;rounded=0;orthogonalLoop=1;jettySize=auto;html=1;exitX=0;exitY=1;exitDx=0;exitDy=0;entryX=1;entryY=0.75;entryDx=0;entryDy=0;" edge="1" parent="1" source="u3d1l5M-4l7rgUjGcVjR-32" target="u3d1l5M-4l7rgUjGcVjR-37">
          <mxGeometry relative="1" as="geometry">
            <Array as="points">
              <mxPoint x="462" y="515" />
            </Array>
          </mxGeometry>
        </mxCell>
        <mxCell id="u3d1l5M-4l7rgUjGcVjR-32" value="4&lt;br&gt;update profile" style="ellipse;whiteSpace=wrap;html=1;aspect=fixed;" vertex="1" parent="1">
          <mxGeometry x="447.5" y="420" width="100" height="100" as="geometry" />
        </mxCell>
        <mxCell id="u3d1l5M-4l7rgUjGcVjR-45" style="edgeStyle=orthogonalEdgeStyle;rounded=0;orthogonalLoop=1;jettySize=auto;html=1;" edge="1" parent="1" source="u3d1l5M-4l7rgUjGcVjR-37" target="u3d1l5M-4l7rgUjGcVjR-32">
          <mxGeometry relative="1" as="geometry">
            <Array as="points">
              <mxPoint x="360" y="470" />
              <mxPoint x="360" y="470" />
            </Array>
          </mxGeometry>
        </mxCell>
        <mxCell id="u3d1l5M-4l7rgUjGcVjR-49" style="edgeStyle=orthogonalEdgeStyle;rounded=0;orthogonalLoop=1;jettySize=auto;html=1;entryX=1;entryY=1;entryDx=0;entryDy=0;" edge="1" parent="1" source="u3d1l5M-4l7rgUjGcVjR-37" target="u3d1l5M-4l7rgUjGcVjR-27">
          <mxGeometry relative="1" as="geometry" />
        </mxCell>
        <mxCell id="u3d1l5M-4l7rgUjGcVjR-37" value="Doctor" style="rounded=0;whiteSpace=wrap;html=1;" vertex="1" parent="1">
          <mxGeometry x="220" y="470" width="110" height="60" as="geometry" />
        </mxCell>
        <mxCell id="u3d1l5M-4l7rgUjGcVjR-51" style="edgeStyle=orthogonalEdgeStyle;rounded=0;orthogonalLoop=1;jettySize=auto;html=1;exitX=0.25;exitY=0;exitDx=0;exitDy=0;entryX=0;entryY=1;entryDx=0;entryDy=0;" edge="1" parent="1" source="u3d1l5M-4l7rgUjGcVjR-38" target="u3d1l5M-4l7rgUjGcVjR-27">
          <mxGeometry relative="1" as="geometry" />
        </mxCell>
        <mxCell id="u3d1l5M-4l7rgUjGcVjR-38" value="Appointment Database" style="shape=partialRectangle;whiteSpace=wrap;html=1;left=0;right=0;fillColor=none;" vertex="1" parent="1">
          <mxGeometry x="30" y="530" width="120" height="60" as="geometry" />
        </mxCell>
        <mxCell id="u3d1l5M-4l7rgUjGcVjR-40" value="appointment data" style="text;html=1;align=center;verticalAlign=middle;resizable=0;points=[];autosize=1;strokeColor=none;fillColor=none;rotation=90;" vertex="1" parent="1">
          <mxGeometry x="45" y="460" width="120" height="30" as="geometry" />
        </mxCell>
        <mxCell id="u3d1l5M-4l7rgUjGcVjR-42" value="profile_data" style="text;html=1;align=center;verticalAlign=middle;resizable=0;points=[];autosize=1;strokeColor=none;fillColor=none;" vertex="1" parent="1">
          <mxGeometry x="230" y="340" width="90" height="30" as="geometry" />
        </mxCell>
        <mxCell id="u3d1l5M-4l7rgUjGcVjR-44" value="update notification" style="text;html=1;align=center;verticalAlign=middle;resizable=0;points=[];autosize=1;strokeColor=none;fillColor=none;" vertex="1" parent="1">
          <mxGeometry x="220" y="388" width="120" height="30" as="geometry" />
        </mxCell>
        <mxCell id="u3d1l5M-4l7rgUjGcVjR-46" value="profile_details" style="text;html=1;align=center;verticalAlign=middle;resizable=0;points=[];autosize=1;strokeColor=none;fillColor=none;" vertex="1" parent="1">
          <mxGeometry x="330" y="440" width="100" height="30" as="geometry" />
        </mxCell>
        <mxCell id="u3d1l5M-4l7rgUjGcVjR-48" value="notification" style="text;html=1;align=center;verticalAlign=middle;resizable=0;points=[];autosize=1;strokeColor=none;fillColor=none;" vertex="1" parent="1">
          <mxGeometry x="367.5" y="510" width="80" height="30" as="geometry" />
        </mxCell>
        <mxCell id="u3d1l5M-4l7rgUjGcVjR-50" value="appointment_id" style="text;html=1;align=center;verticalAlign=middle;resizable=0;points=[];autosize=1;strokeColor=none;fillColor=none;" vertex="1" parent="1">
          <mxGeometry x="115" y="470" width="110" height="30" as="geometry" />
        </mxCell>
        <mxCell id="u3d1l5M-4l7rgUjGcVjR-53" value="record by id" style="text;html=1;align=center;verticalAlign=middle;resizable=0;points=[];autosize=1;strokeColor=none;fillColor=none;rotation=90;" vertex="1" parent="1">
          <mxGeometry y="460" width="90" height="30" as="geometry" />
        </mxCell>
        <mxCell id="u3d1l5M-4l7rgUjGcVjR-56" value="appointment_details" style="text;html=1;align=center;verticalAlign=middle;resizable=0;points=[];autosize=1;strokeColor=none;fillColor=none;" vertex="1" parent="1">
          <mxGeometry x="115" y="418" width="130" height="30" as="geometry" />
        </mxCell>
        <mxCell id="u3d1l5M-4l7rgUjGcVjR-58" style="edgeStyle=orthogonalEdgeStyle;rounded=0;orthogonalLoop=1;jettySize=auto;html=1;entryX=1;entryY=0.5;entryDx=0;entryDy=0;" edge="1" parent="1" source="u3d1l5M-4l7rgUjGcVjR-57" target="u3d1l5M-4l7rgUjGcVjR-17">
          <mxGeometry relative="1" as="geometry">
            <Array as="points">
              <mxPoint x="750" y="320" />
              <mxPoint x="610" y="320" />
              <mxPoint x="610" y="319" />
            </Array>
          </mxGeometry>
        </mxCell>
        <mxCell id="u3d1l5M-4l7rgUjGcVjR-57" value="Admin" style="rounded=0;whiteSpace=wrap;html=1;" vertex="1" parent="1">
          <mxGeometry x="690" y="373" width="120" height="60" as="geometry" />
        </mxCell>
        <mxCell id="u3d1l5M-4l7rgUjGcVjR-59" value="doctor_details" style="text;html=1;align=center;verticalAlign=middle;resizable=0;points=[];autosize=1;strokeColor=none;fillColor=none;" vertex="1" parent="1">
          <mxGeometry x="560" y="318" width="100" height="30" as="geometry" />
        </mxCell>
        <mxCell id="u3d1l5M-4l7rgUjGcVjR-64" style="edgeStyle=orthogonalEdgeStyle;rounded=0;orthogonalLoop=1;jettySize=auto;html=1;exitX=0;exitY=1;exitDx=0;exitDy=0;entryX=0.25;entryY=0;entryDx=0;entryDy=0;" edge="1" parent="1" source="u3d1l5M-4l7rgUjGcVjR-61" target="u3d1l5M-4l7rgUjGcVjR-2">
          <mxGeometry relative="1" as="geometry" />
        </mxCell>
        <mxCell id="u3d1l5M-4l7rgUjGcVjR-67" style="edgeStyle=orthogonalEdgeStyle;rounded=0;orthogonalLoop=1;jettySize=auto;html=1;exitX=1;exitY=0.5;exitDx=0;exitDy=0;" edge="1" parent="1" source="u3d1l5M-4l7rgUjGcVjR-61" target="u3d1l5M-4l7rgUjGcVjR-66">
          <mxGeometry relative="1" as="geometry" />
        </mxCell>
        <mxCell id="u3d1l5M-4l7rgUjGcVjR-61" value="5&lt;br&gt;Upload&lt;br&gt;Medical Records" style="ellipse;whiteSpace=wrap;html=1;aspect=fixed;" vertex="1" parent="1">
          <mxGeometry x="140" y="-120" width="100" height="100" as="geometry" />
        </mxCell>
        <mxCell id="u3d1l5M-4l7rgUjGcVjR-63" value="medical_file, file_description" style="text;html=1;align=center;verticalAlign=middle;resizable=0;points=[];autosize=1;strokeColor=none;fillColor=none;rotation=90;" vertex="1" parent="1">
          <mxGeometry x="115" y="50" width="170" height="30" as="geometry" />
        </mxCell>
        <mxCell id="u3d1l5M-4l7rgUjGcVjR-65" value="message/notification/alert/error" style="text;html=1;align=center;verticalAlign=middle;resizable=0;points=[];autosize=1;strokeColor=none;fillColor=none;rotation=90;" vertex="1" parent="1">
          <mxGeometry x="45" y="48" width="190" height="30" as="geometry" />
        </mxCell>
        <mxCell id="u3d1l5M-4l7rgUjGcVjR-69" style="edgeStyle=orthogonalEdgeStyle;rounded=0;orthogonalLoop=1;jettySize=auto;html=1;exitX=1;exitY=0.5;exitDx=0;exitDy=0;entryX=0;entryY=0.5;entryDx=0;entryDy=0;" edge="1" parent="1" source="u3d1l5M-4l7rgUjGcVjR-66" target="u3d1l5M-4l7rgUjGcVjR-27">
          <mxGeometry relative="1" as="geometry">
            <Array as="points">
              <mxPoint x="840" y="-70" />
              <mxPoint x="840" y="610" />
              <mxPoint x="10" y="610" />
              <mxPoint x="10" y="380" />
            </Array>
          </mxGeometry>
        </mxCell>
        <mxCell id="u3d1l5M-4l7rgUjGcVjR-66" value="Medical record&lt;br&gt;Database" style="shape=partialRectangle;whiteSpace=wrap;html=1;left=0;right=0;fillColor=none;" vertex="1" parent="1">
          <mxGeometry x="447.5" y="-100" width="120" height="60" as="geometry" />
        </mxCell>
        <mxCell id="u3d1l5M-4l7rgUjGcVjR-68" value="medical record, patient_id" style="text;html=1;align=center;verticalAlign=middle;resizable=0;points=[];autosize=1;strokeColor=none;fillColor=none;" vertex="1" parent="1">
          <mxGeometry x="245" y="-100" width="160" height="30" as="geometry" />
        </mxCell>
        <mxCell id="u3d1l5M-4l7rgUjGcVjR-70" value="medical record by patient_id" style="text;html=1;align=center;verticalAlign=middle;resizable=0;points=[];autosize=1;strokeColor=none;fillColor=none;" vertex="1" parent="1">
          <mxGeometry x="370" y="580" width="170" height="30" as="geometry" />
        </mxCell>
      </root>
    </mxGraphModel>
  </diagram>
</mxfile>
